HIERARCHY
ROOT Hips
{
  OFFSET 5.80788e-005 67.184 3.4734
  CHANNELS 6 Xposition Yposition Zposition Zrotation Xrotation Yrotation
  JOINT Chest
  {
    OFFSET 0 8.7983 -4.7612
    CHANNELS 3 Zrotation Xrotation Yrotation
    JOINT Chest2
    {
      OFFSET 0 8.0291 0.4195
      CHANNELS 3 Zrotation Xrotation Yrotation
      JOINT Chest3
      {
        OFFSET 0 9.9351 -2.2114
        CHANNELS 3 Zrotation Xrotation Yrotation
        JOINT Neck
        {
          OFFSET 0 22.3885 -0.4656
          CHANNELS 3 Zrotation Xrotation Yrotation
          JOINT Head
          {
            OFFSET -0.0001 12.643 3.4389
            CHANNELS 3 Zrotation Xrotation Yrotation
            End Site
            {
              OFFSET 0.0001 17.6655 0.5274
            }
          }
        }
        JOINT LeftCollar
        {
          OFFSET 2.2603 21.606 7.4023
          CHANNELS 3 Zrotation Xrotation Yrotation
          JOINT LeftShoulder
          {
            OFFSET 13.5163 -1.1332 -5.0146
            CHANNELS 3 Zrotation Xrotation Yrotation
            JOINT LeftElbow
            {
              OFFSET -0.0995 -28.05 -0.2431
              CHANNELS 3 Zrotation Xrotation Yrotation
              JOINT LeftWrist
              {
                OFFSET 0.0679 -23.3996 -0.1402
                CHANNELS 3 Zrotation Xrotation Yrotation
                JOINT LeftFinger1
                {
                  OFFSET 0.7932 -9.069 2.5189
                  CHANNELS 3 Zrotation Xrotation Yrotation
                  JOINT LeftFinger11
                  {
                    OFFSET -0.8272 -3.3923 0.5977
                    CHANNELS 3 Zrotation Xrotation Yrotation
                    JOINT LeftFinger12
                    {
                      OFFSET -0.5649 -2.3158 0.4082
                      CHANNELS 3 Zrotation Xrotation Yrotation
                      End Site
                      {
                        OFFSET -0.4919 -1.6479 0.2673
                      }
                    }
                  }
                }
                JOINT LeftFinger2
                {
                  OFFSET 0.9159 -9.2044 0.2193
                  CHANNELS 3 Zrotation Xrotation Yrotation
                  JOINT LeftFinger21
                  {
                    OFFSET 0.0117 -4.1944 -0.0248
                    CHANNELS 3 Zrotation Xrotation Yrotation
                    JOINT LeftFinger22
                    {
                      OFFSET 0.0071 -2.3249 -0.0142
                      CHANNELS 3 Zrotation Xrotation Yrotation
                      End Site
                      {
                        OFFSET -0.1475 -2.0882 0.0028
                      }
                    }
                  }
                }
                JOINT LeftFinger3
                {
                  OFFSET 0.6113 -8.7231 -2.0637
                  CHANNELS 3 Zrotation Xrotation Yrotation
                  JOINT LeftFinger31
                  {
                    OFFSET -0.1927 -3.8059 -0.2383
                    CHANNELS 3 Zrotation Xrotation Yrotation
                    JOINT LeftFinger32
                    {
                      OFFSET -0.1091 -2.1688 -0.1362
                      CHANNELS 3 Zrotation Xrotation Yrotation
                      End Site
                      {
                        OFFSET -0.2358 -1.9176 -0.0906
                      }
                    }
                  }
                }
                JOINT LeftFinger4
                {
                  OFFSET -0.6151 -8.0947 -3.5641
                  CHANNELS 3 Zrotation Xrotation Yrotation
                  JOINT LeftFinger41
                  {
                    OFFSET -0.4882 -2.341 -0.6462
                    CHANNELS 3 Zrotation Xrotation Yrotation
                    JOINT LeftFinger42
                    {
                      OFFSET -0.3575 -1.7167 -0.4742
                      CHANNELS 3 Zrotation Xrotation Yrotation
                      End Site
                      {
                        OFFSET -0.4187 -1.5237 -0.3496
                      }
                    }
                  }
                }
                JOINT LeftFinger0
                {
                  OFFSET -1.42 -1.8761 1.4223
                  CHANNELS 3 Zrotation Xrotation Yrotation
                  JOINT LeftFinger01
                  {
                    OFFSET -1.1471 -3.4929 2.6334
                    CHANNELS 3 Zrotation Xrotation Yrotation
                    JOINT LeftFinger02
                    {
                      OFFSET -0.823 -2.3 1.6571
                      CHANNELS 3 Zrotation Xrotation Yrotation
                      End Site
                      {
                        OFFSET -0.5822 -1.6914 1.1582
                      }
                    }
                  }
                }
              }
            }
          }
        }
        JOINT RightCollar
        {
          OFFSET -2.2603 21.606 7.4023
          CHANNELS 3 Zrotation Xrotation Yrotation
          JOINT RightShoulder
          {
            OFFSET -13.5187 -1.1334 -5.0155
            CHANNELS 3 Zrotation Xrotation Yrotation
            JOINT RightElbow
            {
              OFFSET 0.0994 -28.0499 -0.2431
              CHANNELS 3 Zrotation Xrotation Yrotation
              JOINT RightWrist
              {
                OFFSET -0.0679 -23.3996 -0.1402
                CHANNELS 3 Zrotation Xrotation Yrotation
                JOINT RightFinger1
                {
                  OFFSET -0.7932 -9.0691 2.5189
                  CHANNELS 3 Zrotation Xrotation Yrotation
                  JOINT RightFinger11
                  {
                    OFFSET 0.8272 -3.3923 0.5977
                    CHANNELS 3 Zrotation Xrotation Yrotation
                    JOINT RightFinger12
                    {
                      OFFSET 0.565 -2.3158 0.4082
                      CHANNELS 3 Zrotation Xrotation Yrotation
                      End Site
                      {
                        OFFSET 0.4919 -1.6479 0.2673
                      }
                    }
                  }
                }
                JOINT RightFinger2
                {
                  OFFSET -0.916 -9.2044 0.2193
                  CHANNELS 3 Zrotation Xrotation Yrotation
                  JOINT RightFinger21
                  {
                    OFFSET -0.0117 -4.1944 -0.0248
                    CHANNELS 3 Zrotation Xrotation Yrotation
                    JOINT RightFinger22
                    {
                      OFFSET -0.0071 -2.3249 -0.0142
                      CHANNELS 3 Zrotation Xrotation Yrotation
                      End Site
                      {
                        OFFSET 0.1475 -2.0882 0.0028
                      }
                    }
                  }
                }
                JOINT RightFinger3
                {
                  OFFSET -0.6113 -8.7231 -2.0637
                  CHANNELS 3 Zrotation Xrotation Yrotation
                  JOINT RightFinger31
                  {
                    OFFSET 0.1927 -3.8059 -0.2383
                    CHANNELS 3 Zrotation Xrotation Yrotation
                    JOINT RightFinger32
                    {
                      OFFSET 0.1091 -2.1688 -0.1362
                      CHANNELS 3 Zrotation Xrotation Yrotation
                      End Site
                      {
                        OFFSET 0.2358 -1.9176 -0.0906
                      }
                    }
                  }
                }
                JOINT RightFinger4
                {
                  OFFSET 0.6151 -8.0947 -3.564
                  CHANNELS 3 Zrotation Xrotation Yrotation
                  JOINT RightFinger41
                  {
                    OFFSET 0.4882 -2.341 -0.6462
                    CHANNELS 3 Zrotation Xrotation Yrotation
                    JOINT RightFinger42
                    {
                      OFFSET 0.3574 -1.7166 -0.4742
                      CHANNELS 3 Zrotation Xrotation Yrotation
                      End Site
                      {
                        OFFSET 0.4187 -1.5237 -0.3496
                      }
                    }
                  }
                }
                JOINT RightFinger0
                {
                  OFFSET 1.4199 -1.8761 1.4221
                  CHANNELS 3 Zrotation Xrotation Yrotation
                  JOINT RightFinger01
                  {
                    OFFSET 1.1472 -3.4929 2.6336
                    CHANNELS 3 Zrotation Xrotation Yrotation
                    JOINT RightFinger02
                    {
                      OFFSET 0.8229 -2.3 1.6571
                      CHANNELS 3 Zrotation Xrotation Yrotation
                      End Site
                      {
                        OFFSET 0.5822 -1.6914 1.1582
                      }
                    }
                  }
                }
              }
            }
          }
        }
      }
    }
  }
  JOINT RightHip
  {
    OFFSET -9.412 3.9771 -0.7758
    CHANNELS 3 Zrotation Xrotation Yrotation
    JOINT RightKnee
    {
      OFFSET -0.7531 -40.938 0
      CHANNELS 3 Zrotation Xrotation Yrotation
      JOINT RightAnkle
      {
        OFFSET 0 -40.1986 0
        CHANNELS 3 Zrotation Xrotation Yrotation
        JOINT RightToe
        {
          OFFSET 0 -4.4182 9.239
          CHANNELS 3 Zrotation Xrotation Yrotation
          End Site
          {
            OFFSET 0 0 6.1981
          }
        }
      }
    }
  }
  JOINT LeftHip
  {
    OFFSET 9.4119 3.9773 -0.7758
    CHANNELS 3 Zrotation Xrotation Yrotation
    JOINT LeftKnee
    {
      OFFSET 0.7532 -40.9383 0
      CHANNELS 3 Zrotation Xrotation Yrotation
      JOINT LeftAnkle
      {
        OFFSET 0 -40.1986 0
        CHANNELS 3 Zrotation Xrotation Yrotation
        JOINT LeftToe
        {
          OFFSET 0 -4.4182 9.239
          CHANNELS 3 Zrotation Xrotation Yrotation
          End Site
          {
            OFFSET 0 0 6.1981
          }
        }
      }
    }
  }
}
MOTION
Frames:	5
Frame Time:	0.0333333
5.80788e-005 67.184 3.4734 0 0 -0 0 0 -0 0 0 -0 0 0 -0 0 0 -0 0 0 -0 0 0 -12.5014 88.1196 14.2451 10.6914 -0.00160068 -0.00239207 0.000740045 -8.4365e-005 7.00714e-005 -9.52055e-007 9.93923e-017 -1.98785e-016 -1.59028e-015 9.93923e-017 -5.96354e-016 -1.59028e-015 -9.93923e-017 -5.96354e-016 -1.59028e-015 9.93923e-017 -1.98785e-016 -1.59028e-015 -0.0128176 0.00232552 8.52707e-005 9.93923e-017 5.96354e-016 -0 9.93923e-017 -1.98785e-016 -1.59028e-015 -0.0160551 0.00299681 0.000857156 -2.48481e-016 0 3.18055e-015 9.93923e-017 -1.98785e-016 -1.59028e-015 -0.0125865 0.0031206 0.00282719 0 1.98785e-016 -0 9.93923e-017 -1.98785e-016 -1.59028e-015 9.93923e-017 -5.96354e-016 -1.59028e-015 -9.93923e-017 -5.96354e-016 -1.59028e-015 -0.865644 0.16582 7.03859 -88.0329 10.2057 -10.5567 0.0015593 -0.00248883 -0.000788628 7.87605e-005 4.10553e-005 1.24965e-005 -3.97569e-016 -7.95139e-016 3.18055e-015 -1.98785e-016 -3.97569e-016 3.18055e-015 -1.98785e-016 0 3.18055e-015 -3.97569e-016 -7.95139e-016 3.18055e-015 0.0129473 0.00231697 -8.70038e-005 9.93923e-017 -7.95139e-016 1.59028e-015 -3.97569e-016 -7.95139e-016 3.18055e-015 0.0163314 0.00303369 -0.000872333 3.97569e-016 7.95139e-016 -3.18055e-015 -3.97569e-016 -7.95139e-016 3.18055e-015 0.0145763 0.00367772 -0.00326275 9.93923e-017 -3.97569e-016 -0 -3.97569e-016 -7.95139e-016 3.18055e-015 -1.98785e-016 -3.97569e-016 3.18055e-015 -1.98785e-016 0 3.18055e-015 3.42485 1.36937 -0.0640303 0.000136572 0.69354 0.00145564 -3.42573 -2.06297 -0.0607933 -3.19502e-024 0 -1.48106e-024 -3.42498 1.36123 0.0639712 -6.769e-005 0.712612 -0.0012277 3.42582 -2.07388 0.0612819 2.55305e-023 0 -2.31416e-026 
-1.39613 73.293 13.235 -6.41248 29.3133 -167.071 -0.661206 4.15255 -0.237469 -1.31029 8.30754 -0.428433 -1.31029 8.30755 -0.428438 0.0606431 -0.0859278 0.0967256 0.0228681 -0.0977453 0.00858063 -27.654 -9.87983 -40.8101 85.6575 -8.55482 35.0443 -30.4074 -30.4924 -9.89514 -54.8186 15.8522 10.9417 1.90168e-006 -9.71842e-007 2.15916e-006 -1.90833e-014 -1.59028e-015 2.38542e-015 -3.18055e-015 3.18055e-015 -7.95139e-016 1.90168e-006 -9.71842e-007 2.15916e-006 -0.0127899 0.00231454 9.13313e-005 9.54166e-015 1.59028e-015 -3.18055e-015 1.90168e-006 -9.71842e-007 2.15916e-006 -0.0160578 0.00300194 0.000860832 9.54166e-015 0 4.77083e-015 1.90168e-006 -9.71842e-007 2.15916e-006 -0.0126412 0.00313796 0.00283538 -3.18055e-015 -3.18055e-015 3.18055e-015 1.90168e-006 -9.71842e-007 2.15916e-006 -1.90833e-014 -1.59028e-015 2.38542e-015 -3.18055e-015 3.18055e-015 -7.95139e-016 25.5355 0.960887 15.184 -52.1632 -7.21431 -22.0331 19.6271 0.936913 8.90341 56.4151 -0.237963 2.08497 -5.79195e-006 -4.9943e-007 -4.65194e-006 2.78299e-015 0 -0 -1.98785e-015 -2.38542e-015 3.18055e-015 -5.79195e-006 -4.9943e-007 -4.65194e-006 0.0129743 0.00232253 -8.02349e-005 -3.55428e-007 -8.98865e-007 -2.79661e-006 -5.79195e-006 -4.9943e-007 -4.65194e-006 0.0163767 0.00304069 -0.000868544 -5.79221e-006 4.58347e-007 -4.65222e-006 -5.79195e-006 -4.9943e-007 -4.65194e-006 0.0146081 0.00368333 -0.00326362 1.6811e-006 -2.71067e-006 -4.52314e-006 -5.79195e-006 -4.9943e-007 -4.65194e-006 2.78299e-015 0 -0 -1.98785e-015 -2.38542e-015 3.18055e-015 -172.03 -19.2755 177.826 -139.544 35.5861 110.56 6.13408 -10.695 24.0476 9.11866e-007 -4.10922e-007 2.13016e-006 98.8404 -19.3541 112.469 -165.946 27.261 122.458 20.5767 28.597 9.82161 -1.7263e-008 -6.4414e-007 -8.41594e-007 
0.136089 72.3327 12.0413 -1.08884e-014 28.8893 -180 -0.622637 4.22519 -0.220076 -1.234 8.4525 -0.395573 -1.23401 8.45252 -0.395574 0.278722 -0.392243 0.442955 0.104735 -0.447006 0.0394925 -24.9507 -10.6746 -40.8009 85.8712 -6.63195 33.6916 -27.3701 -27.821 -8.6326 -52.5684 14.5067 10.5641 -3.18055e-015 -4.77083e-015 -4.77083e-015 6.36111e-015 6.36111e-015 -0 -3.18055e-015 4.77083e-015 -3.18055e-015 -3.18055e-015 -4.77083e-015 -4.77083e-015 -0.0127951 0.00233552 8.70835e-005 1.6124e-006 -1.13902e-006 2.14651e-006 -3.18055e-015 -4.77083e-015 -4.77083e-015 -0.016037 0.00299744 0.000861946 1.32417e-031 4.77083e-015 -1.59028e-015 -3.18055e-015 -4.77083e-015 -4.77083e-015 -0.0125528 0.00311214 0.00281801 3.50395e-006 1.37284e-006 3.72068e-006 -3.18055e-015 -4.77083e-015 -4.77083e-015 6.36111e-015 6.36111e-015 -0 -3.18055e-015 4.77083e-015 -3.18055e-015 21.4346 -0.622722 14.4253 -53.1071 -6.80785 -21.2249 21.4736 0.930823 8.53456 51.5972 -0.311999 1.13367 -1.00938e-006 -2.08377e-006 -2.97471e-006 9.11329e-007 -4.58637e-006 4.98533e-006 -7.15625e-015 -6.36111e-015 -3.18055e-015 -1.00938e-006 -2.08377e-006 -2.97471e-006 0.0129468 0.00231213 -8.45449e-005 1.59028e-015 0 -3.18055e-015 -1.00938e-006 -2.08377e-006 -2.97471e-006 0.0163651 0.00303469 -0.000872494 3.18055e-015 3.18055e-015 -9.54166e-015 -1.00938e-006 -2.08377e-006 -2.97471e-006 0.0146041 0.00367124 -0.00325898 1.51076e-014 -1.27222e-014 -6.36111e-015 -1.00938e-006 -2.08377e-006 -2.97471e-006 9.11329e-007 -4.58637e-006 4.98533e-006 -7.15625e-015 -6.36111e-015 -3.18055e-015 -172.661 -28.7745 177.816 -131.489 40.7534 107.852 4.93342 -9.04833 22.2628 1.76556e-031 -3.18055e-015 3.18055e-015 95.6832 -25.1556 113.89 -158.15 33.1406 121.089 18.5221 27.4181 10.1706 5.96685e-009 1.29362e-010 -1.06522e-007 
0.216429 71.7893 12.0337 -1.09956e-014 29.556 -180 -0.620931 4.52493 -0.218774 -1.23025 9.05194 -0.389999 -1.23025 9.05196 -0.39 0.489963 -0.685223 0.776768 0.183595 -0.782643 0.0696894 -24.2216 -11.8694 -42.4002 85.9842 -6.06583 33.7612 -26.3033 -26.9806 -8.0672 -53.5662 14.0002 11.0372 -5.37786e-006 -4.34949e-006 -5.31191e-006 7.65192e-006 1.47228e-005 6.15468e-006 7.88147e-006 -5.21159e-006 -4.55148e-006 -5.37786e-006 -4.34949e-006 -5.31191e-006 -0.0128482 0.00234633 9.53012e-005 9.76659e-006 4.77427e-006 -2.97055e-006 -5.37786e-006 -4.34949e-006 -5.31191e-006 -0.0160937 0.00301457 0.000867458 1.17114e-005 -3.80598e-007 -6.65915e-006 -5.37786e-006 -4.34949e-006 -5.31191e-006 -0.012629 0.00313926 0.00283896 1.60326e-005 1.2984e-005 6.99024e-007 -5.37786e-006 -4.34949e-006 -5.31191e-006 7.65192e-006 1.47228e-005 6.15468e-006 7.88147e-006 -5.21159e-006 -4.55148e-006 18.9986 -2.07086 14.0946 -52.038 -7.41164 -21.0529 24.3214 0.941336 8.6649 50.1596 -0.455126 0.099854 -4.60425e-006 -1.85968e-006 1.29008e-006 -1.02932e-006 3.7243e-006 -2.97026e-006 -3.37508e-006 3.18015e-006 -1.32316e-006 -4.60425e-006 -1.85968e-006 1.29008e-006 0.0129292 0.00232264 -8.67254e-005 9.72336e-006 -2.57308e-006 -1.09464e-006 -4.60425e-006 -1.85968e-006 1.29008e-006 0.0163079 0.00304118 -0.000875059 9.20902e-006 -2.62846e-006 -2.57969e-006 -4.60425e-006 -1.85968e-006 1.29008e-006 0.0145775 0.00368031 -0.00326298 -5.14397e-007 1.82087e-006 -1.4852e-006 -4.60425e-006 -1.85968e-006 1.29008e-006 -1.02932e-006 3.7243e-006 -2.97026e-006 -3.37508e-006 3.18015e-006 -1.32316e-006 -172.944 -29.1033 177.61 -131.012 41.0366 107.584 4.56045 -8.24474 22.0729 -3.05195e-006 8.6035e-006 -4.75569e-007 96.3424 -25.2457 114.311 -158.21 33.0694 121.156 17.8948 28.2168 11.0507 -1.40392e-015 3.97569e-016 -0 
0.29675 71.2464 12.0273 -1.11043e-014 30.2228 -180 -0.619161 4.82506 -0.217457 -1.22643 9.65219 -0.384415 -1.22643 9.6522 -0.384415 0.703111 -0.977312 1.11196 0.262727 -1.1186 0.100383 -23.5216 -13.0871 -43.9957 86.0687 -5.51729 33.827 -25.2203 -26.1306 -7.52389 -54.5581 13.4854 11.5004 -1.56227e-006 -2.17432e-006 2.94717e-006 1.56227e-006 -7.76958e-006 -2.94717e-006 -2.77509e-006 8.34832e-006 5.62999e-008 -1.56227e-006 -2.17432e-006 2.94717e-006 -0.0127599 0.00231386 8.33025e-005 3.55588e-006 2.10901e-006 -1.52974e-006 -1.56227e-006 -2.17432e-006 2.94717e-006 -0.0161296 0.00300053 0.000861778 1.21185e-006 9.40657e-006 2.89098e-006 -1.56227e-006 -2.17432e-006 2.94717e-006 -0.0125588 0.00311346 0.00282357 1.05231e-005 1.59106e-005 5.95007e-006 -1.56227e-006 -2.17432e-006 2.94717e-006 1.56227e-006 -7.76958e-006 -2.94717e-006 -2.77509e-006 8.34832e-006 5.62999e-008 16.5401 -3.51024 13.7002 -50.9866 -8.05649 -20.8716 27.1873 1.00248 8.77414 48.7171 -0.572406 -0.939071 -9.6607e-007 2.54138e-006 -4.96637e-006 3.30413e-006 -3.40629e-006 3.30942e-006 -1.59028e-015 -3.18055e-015 -9.54166e-015 -9.6607e-007 2.54138e-006 -4.96637e-006 0.012997 0.00231664 -8.41226e-005 4.15325e-006 -4.33938e-007 -4.79694e-006 -9.6607e-007 2.54138e-006 -4.96637e-006 0.0163563 0.00303729 -0.000871304 -3.97569e-015 2.12034e-006 -3.18055e-015 -9.6607e-007 2.54138e-006 -4.96637e-006 0.0145627 0.00367229 -0.00325217 -6.93541e-006 -4.30044e-007 2.9704e-006 -9.6607e-007 2.54138e-006 -4.96637e-006 3.30413e-006 -3.40629e-006 3.30942e-006 -1.59028e-015 -3.18055e-015 -9.54166e-015 -173.23 -29.4302 177.398 -130.531 41.3174 107.311 4.19032 -7.43925 21.8877 3.18055e-015 3.18055e-015 -6.36111e-015 97.0045 -25.3315 114.737 -158.271 32.9987 121.224 17.2459 29.0091 11.9503 -2.37282e-006 9.56554e-007 1.332e-007 
